<mxfile host="Electron" agent="Mozilla/5.0 (Windows NT 10.0; Win64; x64) AppleWebKit/537.36 (KHTML, like Gecko) draw.io/28.0.6 Chrome/138.0.7204.100 Electron/37.2.3 Safari/537.36" version="28.0.6">
  <diagram name="Página-1" id="-6G7-zytayDccD0y48cG">
    <mxGraphModel dx="1095" dy="622" grid="1" gridSize="10" guides="1" tooltips="1" connect="1" arrows="1" fold="1" page="1" pageScale="1" pageWidth="827" pageHeight="1169" math="0" shadow="0">
      <root>
        <mxCell id="0" />
        <mxCell id="1" parent="0" />
        <mxCell id="tUyBVThGk6CRZ4kE3ZH6-1" value="Paciente" style="rounded=0;whiteSpace=wrap;html=1;fillColor=#E5CCFF;strokeColor=#9A03FF;fontColor=#000000;fontStyle=1" vertex="1" parent="1">
          <mxGeometry x="370" y="217" width="120" height="60" as="geometry" />
        </mxCell>
        <mxCell id="tUyBVThGk6CRZ4kE3ZH6-2" value="Médico" style="rounded=0;whiteSpace=wrap;html=1;fillColor=#E5CCFF;strokeColor=#9A03FF;fontColor=#000000;fontStyle=1" vertex="1" parent="1">
          <mxGeometry x="1153" y="220" width="120" height="60" as="geometry" />
        </mxCell>
        <mxCell id="tUyBVThGk6CRZ4kE3ZH6-3" value="Cita médica" style="rounded=0;whiteSpace=wrap;html=1;fillColor=#E5CCFF;strokeColor=#9A03FF;fontColor=#000000;fontStyle=1" vertex="1" parent="1">
          <mxGeometry x="810" y="478" width="120" height="60" as="geometry" />
        </mxCell>
        <mxCell id="tUyBVThGk6CRZ4kE3ZH6-4" value="Diagnóstico" style="rounded=0;whiteSpace=wrap;html=1;fillColor=#E5CCFF;strokeColor=#9A03FF;fontColor=#000000;fontStyle=1" vertex="1" parent="1">
          <mxGeometry x="830" y="899" width="120" height="60" as="geometry" />
        </mxCell>
        <mxCell id="tUyBVThGk6CRZ4kE3ZH6-5" value="ID_paciente" style="ellipse;whiteSpace=wrap;html=1;fillColor=#d80073;fontColor=#ffffff;strokeColor=#A50040;" vertex="1" parent="1">
          <mxGeometry x="240" y="127" width="120" height="70" as="geometry" />
        </mxCell>
        <mxCell id="tUyBVThGk6CRZ4kE3ZH6-6" value="Nombre_Completo" style="ellipse;whiteSpace=wrap;html=1;" vertex="1" parent="1">
          <mxGeometry x="210" y="207" width="120" height="80" as="geometry" />
        </mxCell>
        <mxCell id="tUyBVThGk6CRZ4kE3ZH6-7" value="Fecha_Nacimiento" style="ellipse;whiteSpace=wrap;html=1;" vertex="1" parent="1">
          <mxGeometry x="230" y="300" width="120" height="80" as="geometry" />
        </mxCell>
        <mxCell id="tUyBVThGk6CRZ4kE3ZH6-8" value="Género" style="ellipse;whiteSpace=wrap;html=1;" vertex="1" parent="1">
          <mxGeometry x="350" y="337" width="120" height="80" as="geometry" />
        </mxCell>
        <mxCell id="tUyBVThGk6CRZ4kE3ZH6-9" value="Teléfono" style="ellipse;whiteSpace=wrap;html=1;" vertex="1" parent="1">
          <mxGeometry x="370" y="117" width="120" height="80" as="geometry" />
        </mxCell>
        <mxCell id="tUyBVThGk6CRZ4kE3ZH6-10" value="Correo" style="ellipse;whiteSpace=wrap;html=1;" vertex="1" parent="1">
          <mxGeometry x="500" y="127" width="120" height="80" as="geometry" />
        </mxCell>
        <mxCell id="tUyBVThGk6CRZ4kE3ZH6-11" value="Dirección" style="ellipse;whiteSpace=wrap;html=1;" vertex="1" parent="1">
          <mxGeometry x="540" y="210" width="120" height="80" as="geometry" />
        </mxCell>
        <mxCell id="tUyBVThGk6CRZ4kE3ZH6-12" value="Tipo_Sangre" style="ellipse;whiteSpace=wrap;html=1;" vertex="1" parent="1">
          <mxGeometry x="490" y="300" width="120" height="80" as="geometry" />
        </mxCell>
        <mxCell id="tUyBVThGk6CRZ4kE3ZH6-13" value="ID_Medico (PK)" style="ellipse;whiteSpace=wrap;html=1;fillColor=#d80073;fontColor=#ffffff;strokeColor=#A50040;" vertex="1" parent="1">
          <mxGeometry x="1043" y="110" width="120" height="80" as="geometry" />
        </mxCell>
        <mxCell id="tUyBVThGk6CRZ4kE3ZH6-14" value="Nombre" style="ellipse;whiteSpace=wrap;html=1;" vertex="1" parent="1">
          <mxGeometry x="1180" y="100" width="120" height="80" as="geometry" />
        </mxCell>
        <mxCell id="tUyBVThGk6CRZ4kE3ZH6-15" value="Especialidad" style="ellipse;whiteSpace=wrap;html=1;" vertex="1" parent="1">
          <mxGeometry x="1303" y="150" width="120" height="80" as="geometry" />
        </mxCell>
        <mxCell id="tUyBVThGk6CRZ4kE3ZH6-16" value="Teléfono" style="ellipse;whiteSpace=wrap;html=1;" vertex="1" parent="1">
          <mxGeometry x="1293" y="250" width="120" height="80" as="geometry" />
        </mxCell>
        <mxCell id="tUyBVThGk6CRZ4kE3ZH6-17" value="Correo" style="ellipse;whiteSpace=wrap;html=1;" vertex="1" parent="1">
          <mxGeometry x="1060" y="300" width="120" height="80" as="geometry" />
        </mxCell>
        <mxCell id="tUyBVThGk6CRZ4kE3ZH6-18" value="Años_Experiencia" style="ellipse;whiteSpace=wrap;html=1;" vertex="1" parent="1">
          <mxGeometry x="1003" y="210" width="120" height="80" as="geometry" />
        </mxCell>
        <mxCell id="tUyBVThGk6CRZ4kE3ZH6-19" value="Salario" style="ellipse;whiteSpace=wrap;html=1;" vertex="1" parent="1">
          <mxGeometry x="1221" y="330" width="120" height="80" as="geometry" />
        </mxCell>
        <mxCell id="tUyBVThGk6CRZ4kE3ZH6-21" value="ID_Cita (PK)" style="ellipse;whiteSpace=wrap;html=1;fillColor=#d80073;fontColor=#ffffff;strokeColor=#A50040;" vertex="1" parent="1">
          <mxGeometry x="660" y="398" width="120" height="80" as="geometry" />
        </mxCell>
        <mxCell id="tUyBVThGk6CRZ4kE3ZH6-22" value="Estado" style="ellipse;whiteSpace=wrap;html=1;" vertex="1" parent="1">
          <mxGeometry x="720" y="585" width="120" height="80" as="geometry" />
        </mxCell>
        <mxCell id="tUyBVThGk6CRZ4kE3ZH6-23" value="Hora" style="ellipse;whiteSpace=wrap;html=1;" vertex="1" parent="1">
          <mxGeometry x="930" y="398" width="120" height="80" as="geometry" />
        </mxCell>
        <mxCell id="tUyBVThGk6CRZ4kE3ZH6-24" value="Fecha" style="ellipse;whiteSpace=wrap;html=1;" vertex="1" parent="1">
          <mxGeometry x="800" y="368" width="120" height="80" as="geometry" />
        </mxCell>
        <mxCell id="tUyBVThGk6CRZ4kE3ZH6-25" value="Motivo" style="ellipse;whiteSpace=wrap;html=1;" vertex="1" parent="1">
          <mxGeometry x="640" y="515" width="120" height="80" as="geometry" />
        </mxCell>
        <mxCell id="tUyBVThGk6CRZ4kE3ZH6-27" value="ID_Médico (FK)" style="ellipse;whiteSpace=wrap;html=1;fillColor=#60a917;fontColor=#ffffff;strokeColor=default;gradientColor=none;shadow=0;" vertex="1" parent="1">
          <mxGeometry x="970" y="515" width="120" height="80" as="geometry" />
        </mxCell>
        <mxCell id="tUyBVThGk6CRZ4kE3ZH6-28" value="ID_Paciente (FK)" style="ellipse;whiteSpace=wrap;html=1;fillColor=#60a917;fontColor=#ffffff;strokeColor=#2D7600;" vertex="1" parent="1">
          <mxGeometry x="883" y="595" width="120" height="80" as="geometry" />
        </mxCell>
        <mxCell id="tUyBVThGk6CRZ4kE3ZH6-29" value="Indicaciones" style="ellipse;whiteSpace=wrap;html=1;" vertex="1" parent="1">
          <mxGeometry x="890" y="805" width="120" height="80" as="geometry" />
        </mxCell>
        <mxCell id="tUyBVThGk6CRZ4kE3ZH6-30" value="Receta" style="ellipse;whiteSpace=wrap;html=1;" vertex="1" parent="1">
          <mxGeometry x="980" y="895" width="120" height="80" as="geometry" />
        </mxCell>
        <mxCell id="tUyBVThGk6CRZ4kE3ZH6-31" value="ID_Cita (FK)" style="ellipse;whiteSpace=wrap;html=1;fillColor=#60a917;fontColor=#ffffff;strokeColor=#2D7600;" vertex="1" parent="1">
          <mxGeometry x="890" y="975" width="120" height="80" as="geometry" />
        </mxCell>
        <mxCell id="tUyBVThGk6CRZ4kE3ZH6-32" value="Descripción" style="ellipse;whiteSpace=wrap;html=1;" vertex="1" parent="1">
          <mxGeometry x="730" y="965" width="120" height="80" as="geometry" />
        </mxCell>
        <mxCell id="tUyBVThGk6CRZ4kE3ZH6-33" value="ID_Diagnóstico (PK)" style="ellipse;whiteSpace=wrap;html=1;fillColor=#d80073;fontColor=#ffffff;strokeColor=#A50040;" vertex="1" parent="1">
          <mxGeometry x="700" y="847" width="120" height="80" as="geometry" />
        </mxCell>
        <mxCell id="tUyBVThGk6CRZ4kE3ZH6-36" value="" style="endArrow=none;html=1;rounded=0;exitX=1;exitY=0;exitDx=0;exitDy=0;entryX=0.053;entryY=0.736;entryDx=0;entryDy=0;entryPerimeter=0;" edge="1" parent="1" source="tUyBVThGk6CRZ4kE3ZH6-1" target="tUyBVThGk6CRZ4kE3ZH6-10">
          <mxGeometry width="50" height="50" relative="1" as="geometry">
            <mxPoint x="430" y="297" as="sourcePoint" />
            <mxPoint x="500" y="217" as="targetPoint" />
          </mxGeometry>
        </mxCell>
        <mxCell id="tUyBVThGk6CRZ4kE3ZH6-37" value="" style="endArrow=none;html=1;rounded=0;exitX=0.998;exitY=0.561;exitDx=0;exitDy=0;exitPerimeter=0;entryX=0;entryY=0.5;entryDx=0;entryDy=0;" edge="1" parent="1" source="tUyBVThGk6CRZ4kE3ZH6-1" target="tUyBVThGk6CRZ4kE3ZH6-11">
          <mxGeometry width="50" height="50" relative="1" as="geometry">
            <mxPoint x="480" y="317" as="sourcePoint" />
            <mxPoint x="520" y="277" as="targetPoint" />
          </mxGeometry>
        </mxCell>
        <mxCell id="tUyBVThGk6CRZ4kE3ZH6-38" value="" style="endArrow=none;html=1;rounded=0;entryX=0.5;entryY=1;entryDx=0;entryDy=0;exitX=0.5;exitY=0;exitDx=0;exitDy=0;" edge="1" parent="1" source="tUyBVThGk6CRZ4kE3ZH6-1" target="tUyBVThGk6CRZ4kE3ZH6-9">
          <mxGeometry width="50" height="50" relative="1" as="geometry">
            <mxPoint x="370" y="257" as="sourcePoint" />
            <mxPoint x="420" y="207" as="targetPoint" />
          </mxGeometry>
        </mxCell>
        <mxCell id="tUyBVThGk6CRZ4kE3ZH6-39" value="" style="endArrow=none;html=1;rounded=0;entryX=0.442;entryY=0.992;entryDx=0;entryDy=0;entryPerimeter=0;exitX=0.5;exitY=0;exitDx=0;exitDy=0;" edge="1" parent="1" source="tUyBVThGk6CRZ4kE3ZH6-8" target="tUyBVThGk6CRZ4kE3ZH6-1">
          <mxGeometry width="50" height="50" relative="1" as="geometry">
            <mxPoint x="370" y="287" as="sourcePoint" />
            <mxPoint x="420" y="237" as="targetPoint" />
          </mxGeometry>
        </mxCell>
        <mxCell id="tUyBVThGk6CRZ4kE3ZH6-40" value="" style="endArrow=none;html=1;rounded=0;entryX=1;entryY=0;entryDx=0;entryDy=0;exitX=0.073;exitY=1.003;exitDx=0;exitDy=0;exitPerimeter=0;" edge="1" parent="1" source="tUyBVThGk6CRZ4kE3ZH6-1" target="tUyBVThGk6CRZ4kE3ZH6-7">
          <mxGeometry width="50" height="50" relative="1" as="geometry">
            <mxPoint x="370" y="287" as="sourcePoint" />
            <mxPoint x="420" y="237" as="targetPoint" />
          </mxGeometry>
        </mxCell>
        <mxCell id="tUyBVThGk6CRZ4kE3ZH6-41" value="" style="endArrow=none;html=1;rounded=0;entryX=1.003;entryY=0.493;entryDx=0;entryDy=0;entryPerimeter=0;exitX=0;exitY=0.5;exitDx=0;exitDy=0;" edge="1" parent="1" source="tUyBVThGk6CRZ4kE3ZH6-1" target="tUyBVThGk6CRZ4kE3ZH6-6">
          <mxGeometry width="50" height="50" relative="1" as="geometry">
            <mxPoint x="370" y="287" as="sourcePoint" />
            <mxPoint x="420" y="237" as="targetPoint" />
          </mxGeometry>
        </mxCell>
        <mxCell id="tUyBVThGk6CRZ4kE3ZH6-42" value="" style="endArrow=none;html=1;rounded=0;entryX=1;entryY=1;entryDx=0;entryDy=0;" edge="1" parent="1" source="tUyBVThGk6CRZ4kE3ZH6-1" target="tUyBVThGk6CRZ4kE3ZH6-5">
          <mxGeometry width="50" height="50" relative="1" as="geometry">
            <mxPoint x="370" y="287" as="sourcePoint" />
            <mxPoint x="420" y="237" as="targetPoint" />
          </mxGeometry>
        </mxCell>
        <mxCell id="tUyBVThGk6CRZ4kE3ZH6-43" value="" style="endArrow=none;html=1;rounded=0;entryX=0.89;entryY=1;entryDx=0;entryDy=0;entryPerimeter=0;exitX=0.182;exitY=0.101;exitDx=0;exitDy=0;exitPerimeter=0;" edge="1" parent="1" source="tUyBVThGk6CRZ4kE3ZH6-12" target="tUyBVThGk6CRZ4kE3ZH6-1">
          <mxGeometry width="50" height="50" relative="1" as="geometry">
            <mxPoint x="380" y="307" as="sourcePoint" />
            <mxPoint x="430" y="257" as="targetPoint" />
          </mxGeometry>
        </mxCell>
        <mxCell id="tUyBVThGk6CRZ4kE3ZH6-44" value="" style="endArrow=none;html=1;rounded=0;entryX=0.688;entryY=0.997;entryDx=0;entryDy=0;entryPerimeter=0;exitX=0.417;exitY=0;exitDx=0;exitDy=0;exitPerimeter=0;" edge="1" parent="1" source="tUyBVThGk6CRZ4kE3ZH6-19" target="tUyBVThGk6CRZ4kE3ZH6-2">
          <mxGeometry width="50" height="50" relative="1" as="geometry">
            <mxPoint x="1173" y="250" as="sourcePoint" />
            <mxPoint x="1223" y="200" as="targetPoint" />
          </mxGeometry>
        </mxCell>
        <mxCell id="tUyBVThGk6CRZ4kE3ZH6-45" value="" style="endArrow=none;html=1;rounded=0;entryX=0.006;entryY=0.402;entryDx=0;entryDy=0;entryPerimeter=0;exitX=0.998;exitY=0.826;exitDx=0;exitDy=0;exitPerimeter=0;" edge="1" parent="1" source="tUyBVThGk6CRZ4kE3ZH6-2" target="tUyBVThGk6CRZ4kE3ZH6-16">
          <mxGeometry width="50" height="50" relative="1" as="geometry">
            <mxPoint x="1173" y="250" as="sourcePoint" />
            <mxPoint x="1223" y="200" as="targetPoint" />
          </mxGeometry>
        </mxCell>
        <mxCell id="tUyBVThGk6CRZ4kE3ZH6-46" value="" style="endArrow=none;html=1;rounded=0;entryX=0;entryY=1;entryDx=0;entryDy=0;exitX=1;exitY=0.25;exitDx=0;exitDy=0;" edge="1" parent="1" source="tUyBVThGk6CRZ4kE3ZH6-2" target="tUyBVThGk6CRZ4kE3ZH6-15">
          <mxGeometry width="50" height="50" relative="1" as="geometry">
            <mxPoint x="1173" y="250" as="sourcePoint" />
            <mxPoint x="1223" y="200" as="targetPoint" />
          </mxGeometry>
        </mxCell>
        <mxCell id="tUyBVThGk6CRZ4kE3ZH6-47" value="" style="endArrow=none;html=1;rounded=0;entryX=0.467;entryY=1.015;entryDx=0;entryDy=0;entryPerimeter=0;exitX=0.568;exitY=0.005;exitDx=0;exitDy=0;exitPerimeter=0;" edge="1" parent="1" source="tUyBVThGk6CRZ4kE3ZH6-2" target="tUyBVThGk6CRZ4kE3ZH6-14">
          <mxGeometry width="50" height="50" relative="1" as="geometry">
            <mxPoint x="1173" y="250" as="sourcePoint" />
            <mxPoint x="1223" y="200" as="targetPoint" />
          </mxGeometry>
        </mxCell>
        <mxCell id="tUyBVThGk6CRZ4kE3ZH6-48" value="" style="endArrow=none;html=1;rounded=0;entryX=0.787;entryY=0.925;entryDx=0;entryDy=0;entryPerimeter=0;" edge="1" parent="1" source="tUyBVThGk6CRZ4kE3ZH6-2" target="tUyBVThGk6CRZ4kE3ZH6-13">
          <mxGeometry width="50" height="50" relative="1" as="geometry">
            <mxPoint x="1173" y="250" as="sourcePoint" />
            <mxPoint x="1223" y="200" as="targetPoint" />
          </mxGeometry>
        </mxCell>
        <mxCell id="tUyBVThGk6CRZ4kE3ZH6-49" value="" style="endArrow=none;html=1;rounded=0;exitX=0.735;exitY=0.044;exitDx=0;exitDy=0;exitPerimeter=0;entryX=0.124;entryY=1.017;entryDx=0;entryDy=0;entryPerimeter=0;" edge="1" parent="1" source="tUyBVThGk6CRZ4kE3ZH6-17" target="tUyBVThGk6CRZ4kE3ZH6-2">
          <mxGeometry width="50" height="50" relative="1" as="geometry">
            <mxPoint x="1173" y="250" as="sourcePoint" />
            <mxPoint x="1223" y="200" as="targetPoint" />
          </mxGeometry>
        </mxCell>
        <mxCell id="tUyBVThGk6CRZ4kE3ZH6-50" value="" style="endArrow=none;html=1;rounded=0;entryX=0.992;entryY=0.431;entryDx=0;entryDy=0;entryPerimeter=0;exitX=-0.013;exitY=0.439;exitDx=0;exitDy=0;exitPerimeter=0;" edge="1" parent="1" source="tUyBVThGk6CRZ4kE3ZH6-2" target="tUyBVThGk6CRZ4kE3ZH6-18">
          <mxGeometry width="50" height="50" relative="1" as="geometry">
            <mxPoint x="1173" y="250" as="sourcePoint" />
            <mxPoint x="1223" y="200" as="targetPoint" />
          </mxGeometry>
        </mxCell>
        <mxCell id="tUyBVThGk6CRZ4kE3ZH6-52" value="" style="endArrow=none;html=1;rounded=0;entryX=0.562;entryY=0.992;entryDx=0;entryDy=0;entryPerimeter=0;" edge="1" parent="1" source="tUyBVThGk6CRZ4kE3ZH6-3" target="tUyBVThGk6CRZ4kE3ZH6-24">
          <mxGeometry width="50" height="50" relative="1" as="geometry">
            <mxPoint x="840" y="518" as="sourcePoint" />
            <mxPoint x="890" y="468" as="targetPoint" />
          </mxGeometry>
        </mxCell>
        <mxCell id="tUyBVThGk6CRZ4kE3ZH6-53" value="" style="endArrow=none;html=1;rounded=0;entryX=0.892;entryY=0.81;entryDx=0;entryDy=0;entryPerimeter=0;exitX=-0.003;exitY=0.112;exitDx=0;exitDy=0;exitPerimeter=0;" edge="1" parent="1" source="tUyBVThGk6CRZ4kE3ZH6-3" target="tUyBVThGk6CRZ4kE3ZH6-21">
          <mxGeometry width="50" height="50" relative="1" as="geometry">
            <mxPoint x="840" y="508" as="sourcePoint" />
            <mxPoint x="890" y="458" as="targetPoint" />
          </mxGeometry>
        </mxCell>
        <mxCell id="tUyBVThGk6CRZ4kE3ZH6-54" value="" style="endArrow=none;html=1;rounded=0;entryX=0.25;entryY=1;entryDx=0;entryDy=0;exitX=0.697;exitY=0.05;exitDx=0;exitDy=0;exitPerimeter=0;" edge="1" parent="1" source="tUyBVThGk6CRZ4kE3ZH6-22" target="tUyBVThGk6CRZ4kE3ZH6-3">
          <mxGeometry width="50" height="50" relative="1" as="geometry">
            <mxPoint x="810" y="575" as="sourcePoint" />
            <mxPoint x="890" y="458" as="targetPoint" />
          </mxGeometry>
        </mxCell>
        <mxCell id="tUyBVThGk6CRZ4kE3ZH6-55" value="" style="endArrow=none;html=1;rounded=0;exitX=-0.005;exitY=0.459;exitDx=0;exitDy=0;exitPerimeter=0;entryX=1.008;entryY=0.819;entryDx=0;entryDy=0;entryPerimeter=0;" edge="1" parent="1" source="tUyBVThGk6CRZ4kE3ZH6-27" target="tUyBVThGk6CRZ4kE3ZH6-3">
          <mxGeometry width="50" height="50" relative="1" as="geometry">
            <mxPoint x="840" y="508" as="sourcePoint" />
            <mxPoint x="890" y="458" as="targetPoint" />
          </mxGeometry>
        </mxCell>
        <mxCell id="tUyBVThGk6CRZ4kE3ZH6-56" value="" style="endArrow=none;html=1;rounded=0;entryX=0.083;entryY=0.75;entryDx=0;entryDy=0;entryPerimeter=0;exitX=0.925;exitY=-0.022;exitDx=0;exitDy=0;exitPerimeter=0;" edge="1" parent="1">
          <mxGeometry width="50" height="50" relative="1" as="geometry">
            <mxPoint x="920" y="477.68000000000006" as="sourcePoint" />
            <mxPoint x="938.9599999999999" y="459" as="targetPoint" />
            <Array as="points">
              <mxPoint x="929" y="469" />
            </Array>
          </mxGeometry>
        </mxCell>
        <mxCell id="tUyBVThGk6CRZ4kE3ZH6-57" value="" style="endArrow=none;html=1;rounded=0;entryX=0.325;entryY=0.028;entryDx=0;entryDy=0;entryPerimeter=0;exitX=0.692;exitY=1.013;exitDx=0;exitDy=0;exitPerimeter=0;" edge="1" parent="1" source="tUyBVThGk6CRZ4kE3ZH6-3">
          <mxGeometry width="50" height="50" relative="1" as="geometry">
            <mxPoint x="840" y="488" as="sourcePoint" />
            <mxPoint x="922" y="597.2399999999998" as="targetPoint" />
          </mxGeometry>
        </mxCell>
        <mxCell id="tUyBVThGk6CRZ4kE3ZH6-58" value="" style="endArrow=none;html=1;rounded=0;entryX=0.995;entryY=0.374;entryDx=0;entryDy=0;exitX=0.001;exitY=0.646;exitDx=0;exitDy=0;exitPerimeter=0;entryPerimeter=0;" edge="1" parent="1" source="tUyBVThGk6CRZ4kE3ZH6-3" target="tUyBVThGk6CRZ4kE3ZH6-25">
          <mxGeometry width="50" height="50" relative="1" as="geometry">
            <mxPoint x="840" y="488" as="sourcePoint" />
            <mxPoint x="890" y="438" as="targetPoint" />
          </mxGeometry>
        </mxCell>
        <mxCell id="tUyBVThGk6CRZ4kE3ZH6-59" value="" style="endArrow=none;html=1;rounded=0;exitX=0.107;exitY=1.002;exitDx=0;exitDy=0;exitPerimeter=0;entryX=0.758;entryY=0.07;entryDx=0;entryDy=0;entryPerimeter=0;" edge="1" parent="1" source="tUyBVThGk6CRZ4kE3ZH6-4" target="tUyBVThGk6CRZ4kE3ZH6-32">
          <mxGeometry width="50" height="50" relative="1" as="geometry">
            <mxPoint x="900" y="955" as="sourcePoint" />
            <mxPoint x="830" y="974" as="targetPoint" />
          </mxGeometry>
        </mxCell>
        <mxCell id="tUyBVThGk6CRZ4kE3ZH6-60" value="" style="endArrow=none;html=1;rounded=0;exitX=0.689;exitY=0.986;exitDx=0;exitDy=0;exitPerimeter=0;entryX=0.334;entryY=0.017;entryDx=0;entryDy=0;entryPerimeter=0;" edge="1" parent="1" target="tUyBVThGk6CRZ4kE3ZH6-31">
          <mxGeometry width="50" height="50" relative="1" as="geometry">
            <mxPoint x="912.6800000000001" y="959.1600000000001" as="sourcePoint" />
            <mxPoint x="940" y="985" as="targetPoint" />
          </mxGeometry>
        </mxCell>
        <mxCell id="tUyBVThGk6CRZ4kE3ZH6-61" value="" style="endArrow=none;html=1;rounded=0;entryX=0.001;entryY=0.528;entryDx=0;entryDy=0;entryPerimeter=0;exitX=1.001;exitY=0.628;exitDx=0;exitDy=0;exitPerimeter=0;" edge="1" parent="1" source="tUyBVThGk6CRZ4kE3ZH6-4" target="tUyBVThGk6CRZ4kE3ZH6-30">
          <mxGeometry width="50" height="50" relative="1" as="geometry">
            <mxPoint x="900" y="955" as="sourcePoint" />
            <mxPoint x="950" y="905" as="targetPoint" />
          </mxGeometry>
        </mxCell>
        <mxCell id="tUyBVThGk6CRZ4kE3ZH6-63" value="" style="endArrow=none;html=1;rounded=0;entryX=0.964;entryY=0.699;entryDx=0;entryDy=0;entryPerimeter=0;exitX=-0.026;exitY=0.256;exitDx=0;exitDy=0;exitPerimeter=0;" edge="1" parent="1" target="tUyBVThGk6CRZ4kE3ZH6-33">
          <mxGeometry width="50" height="50" relative="1" as="geometry">
            <mxPoint x="829.9999999999999" y="915" as="sourcePoint" />
            <mxPoint x="804.9599999999999" y="901.64" as="targetPoint" />
          </mxGeometry>
        </mxCell>
        <mxCell id="tUyBVThGk6CRZ4kE3ZH6-64" value="Atiende&lt;div&gt;1:N&lt;/div&gt;" style="rhombus;whiteSpace=wrap;html=1;fillColor=#1ba1e2;strokeColor=#006EAF;fontColor=#ffffff;" vertex="1" parent="1">
          <mxGeometry x="1123" y="457" width="130" height="90" as="geometry" />
        </mxCell>
        <mxCell id="tUyBVThGk6CRZ4kE3ZH6-71" value="" style="endArrow=none;html=1;rounded=0;entryX=0.677;entryY=1.009;entryDx=0;entryDy=0;entryPerimeter=0;exitX=0.5;exitY=0;exitDx=0;exitDy=0;" edge="1" parent="1" source="tUyBVThGk6CRZ4kE3ZH6-72" target="tUyBVThGk6CRZ4kE3ZH6-1">
          <mxGeometry width="50" height="50" relative="1" as="geometry">
            <mxPoint x="500" y="457" as="sourcePoint" />
            <mxPoint x="800" y="527" as="targetPoint" />
          </mxGeometry>
        </mxCell>
        <mxCell id="tUyBVThGk6CRZ4kE3ZH6-72" value="Solicita&lt;div&gt;1:N&lt;/div&gt;" style="rhombus;whiteSpace=wrap;html=1;fillColor=#1ba1e2;strokeColor=#006EAF;fontColor=#ffffff;" vertex="1" parent="1">
          <mxGeometry x="440" y="447" width="130" height="90" as="geometry" />
        </mxCell>
        <mxCell id="tUyBVThGk6CRZ4kE3ZH6-73" value="" style="endArrow=none;html=1;rounded=0;entryX=-0.003;entryY=0.355;entryDx=0;entryDy=0;entryPerimeter=0;exitX=1;exitY=0.5;exitDx=0;exitDy=0;" edge="1" parent="1" source="tUyBVThGk6CRZ4kE3ZH6-72" target="tUyBVThGk6CRZ4kE3ZH6-3">
          <mxGeometry width="50" height="50" relative="1" as="geometry">
            <mxPoint x="730" y="547" as="sourcePoint" />
            <mxPoint x="780" y="497" as="targetPoint" />
          </mxGeometry>
        </mxCell>
        <mxCell id="tUyBVThGk6CRZ4kE3ZH6-74" value="" style="endArrow=none;html=1;rounded=0;entryX=0.5;entryY=1;entryDx=0;entryDy=0;exitX=0.5;exitY=0;exitDx=0;exitDy=0;" edge="1" parent="1" source="tUyBVThGk6CRZ4kE3ZH6-64" target="tUyBVThGk6CRZ4kE3ZH6-2">
          <mxGeometry width="50" height="50" relative="1" as="geometry">
            <mxPoint x="1100" y="557" as="sourcePoint" />
            <mxPoint x="1150" y="507" as="targetPoint" />
          </mxGeometry>
        </mxCell>
        <mxCell id="tUyBVThGk6CRZ4kE3ZH6-75" value="" style="endArrow=none;html=1;rounded=0;entryX=0;entryY=0.5;entryDx=0;entryDy=0;exitX=0.997;exitY=0.422;exitDx=0;exitDy=0;exitPerimeter=0;" edge="1" parent="1" source="tUyBVThGk6CRZ4kE3ZH6-3" target="tUyBVThGk6CRZ4kE3ZH6-64">
          <mxGeometry width="50" height="50" relative="1" as="geometry">
            <mxPoint x="1100" y="557" as="sourcePoint" />
            <mxPoint x="1150" y="507" as="targetPoint" />
          </mxGeometry>
        </mxCell>
        <mxCell id="tUyBVThGk6CRZ4kE3ZH6-76" value="Genera&lt;div&gt;1:1&lt;/div&gt;" style="rhombus;whiteSpace=wrap;html=1;fillColor=#1ba1e2;strokeColor=#006EAF;fontColor=#ffffff;" vertex="1" parent="1">
          <mxGeometry x="805" y="707" width="130" height="90" as="geometry" />
        </mxCell>
        <mxCell id="tUyBVThGk6CRZ4kE3ZH6-77" value="" style="endArrow=none;html=1;rounded=0;entryX=0.5;entryY=1;entryDx=0;entryDy=0;exitX=0.5;exitY=0;exitDx=0;exitDy=0;" edge="1" parent="1" source="tUyBVThGk6CRZ4kE3ZH6-76" target="tUyBVThGk6CRZ4kE3ZH6-3">
          <mxGeometry width="50" height="50" relative="1" as="geometry">
            <mxPoint x="950" y="777" as="sourcePoint" />
            <mxPoint x="1000" y="727" as="targetPoint" />
          </mxGeometry>
        </mxCell>
        <mxCell id="tUyBVThGk6CRZ4kE3ZH6-78" value="" style="endArrow=none;html=1;rounded=0;entryX=0.5;entryY=1;entryDx=0;entryDy=0;exitX=0.333;exitY=0.011;exitDx=0;exitDy=0;exitPerimeter=0;" edge="1" parent="1" source="tUyBVThGk6CRZ4kE3ZH6-4" target="tUyBVThGk6CRZ4kE3ZH6-76">
          <mxGeometry width="50" height="50" relative="1" as="geometry">
            <mxPoint x="870" y="947" as="sourcePoint" />
            <mxPoint x="1030" y="957" as="targetPoint" />
          </mxGeometry>
        </mxCell>
        <mxCell id="tUyBVThGk6CRZ4kE3ZH6-79" value="" style="endArrow=none;html=1;rounded=0;entryX=0.331;entryY=0.973;entryDx=0;entryDy=0;entryPerimeter=0;exitX=0.75;exitY=0;exitDx=0;exitDy=0;" edge="1" parent="1" source="tUyBVThGk6CRZ4kE3ZH6-4" target="tUyBVThGk6CRZ4kE3ZH6-29">
          <mxGeometry width="50" height="50" relative="1" as="geometry">
            <mxPoint x="950" y="975" as="sourcePoint" />
            <mxPoint x="1000" y="925" as="targetPoint" />
          </mxGeometry>
        </mxCell>
        <mxCell id="tUyBVThGk6CRZ4kE3ZH6-80" value="1" style="text;html=1;align=center;verticalAlign=middle;resizable=0;points=[];autosize=1;strokeColor=none;fillColor=none;fontColor=#9A03FF;labelBackgroundColor=#E5CCFF;fontStyle=1" vertex="1" parent="1">
          <mxGeometry x="495" y="415" width="30" height="30" as="geometry" />
        </mxCell>
        <mxCell id="tUyBVThGk6CRZ4kE3ZH6-82" value="N" style="text;html=1;align=center;verticalAlign=middle;resizable=0;points=[];autosize=1;strokeColor=none;fillColor=none;fontColor=#9A03FF;labelBackgroundColor=#E5CCFF;fontStyle=1" vertex="1" parent="1">
          <mxGeometry x="567" y="464" width="30" height="30" as="geometry" />
        </mxCell>
        <mxCell id="tUyBVThGk6CRZ4kE3ZH6-83" value="1" style="text;html=1;align=center;verticalAlign=middle;resizable=0;points=[];autosize=1;strokeColor=none;fillColor=none;fontColor=#9A03FF;fontStyle=1;labelBackgroundColor=#E5CCFF;" vertex="1" parent="1">
          <mxGeometry x="1163" y="427" width="30" height="30" as="geometry" />
        </mxCell>
        <mxCell id="tUyBVThGk6CRZ4kE3ZH6-84" value="N" style="text;html=1;align=center;verticalAlign=middle;resizable=0;points=[];autosize=1;strokeColor=none;fillColor=none;fontColor=#9A03FF;labelBackgroundColor=#E5CCFF;fontStyle=1" vertex="1" parent="1">
          <mxGeometry x="1095" y="474" width="30" height="30" as="geometry" />
        </mxCell>
        <mxCell id="tUyBVThGk6CRZ4kE3ZH6-85" value="1" style="text;html=1;align=center;verticalAlign=middle;resizable=0;points=[];autosize=1;strokeColor=none;fillColor=none;fontColor=#9A03FF;fontStyle=1;labelBackgroundColor=#E5CCFF;textShadow=0;labelBorderColor=none;" vertex="1" parent="1">
          <mxGeometry x="867" y="685" width="30" height="30" as="geometry" />
        </mxCell>
        <mxCell id="tUyBVThGk6CRZ4kE3ZH6-87" value="1" style="text;html=1;align=center;verticalAlign=middle;resizable=0;points=[];autosize=1;strokeColor=none;fillColor=none;fontColor=#9A03FF;fontStyle=1;labelBackgroundColor=#E5CCFF;textShadow=0;labelBorderColor=none;" vertex="1" parent="1">
          <mxGeometry x="867" y="793" width="30" height="30" as="geometry" />
        </mxCell>
      </root>
    </mxGraphModel>
  </diagram>
</mxfile>
